REM DIRINDEX 1\2,1\4,1\5,1\6,1\7,1\3\8,1\3\9,1\3\10
REM DIRNAME folder01,folder02,folder03,folder04,folder05,folder06,folder07,folder08,folder09,folder10
TITLE ""
FILE "DB4500_5th_3B_06.mp3" MP3
  TRACK 01 AUDIO
    TITLE "8:cjc113_2018"
    INDEX 01 00:00:00
  TRACK 02 AUDIO
    TITLE "0:"
    INDEX 01 00:01:30
  TRACK 03 AUDIO
    TITLE "9:cjc113_2019"
    INDEX 01 00:01:46
  TRACK 04 AUDIO
    TITLE "0:"
    INDEX 01 00:03:00
  TRACK 05 AUDIO
    TITLE "10:cjc113_2020"
    INDEX 01 00:03:23
  TRACK 06 AUDIO
    TITLE "0:"
    INDEX 01 00:06:04
  TRACK 07 AUDIO
    TITLE "8:cjc113_2021"
    INDEX 01 00:06:47
  TRACK 08 AUDIO
    TITLE "0:"
    INDEX 01 00:08:09
  TRACK 09 AUDIO
    TITLE "9:cjc113_2022"
    INDEX 01 00:08:26
  TRACK 10 AUDIO
    TITLE "0:"
    INDEX 01 00:09:40
  TRACK 11 AUDIO
    TITLE "10:cjc113_2023"
    INDEX 01 00:09:57
  TRACK 12 AUDIO
    TITLE "0:"
    INDEX 01 00:13:24
  TRACK 13 AUDIO
    TITLE "8:cjc113_2024"
    INDEX 01 00:13:65
  TRACK 14 AUDIO
    TITLE "0:"
    INDEX 01 00:15:15
  TRACK 15 AUDIO
    TITLE "9:cjc113_2025"
    INDEX 01 00:15:32
  TRACK 16 AUDIO
    TITLE "0:"
    INDEX 01 00:16:67
  TRACK 17 AUDIO
    TITLE "10:cjc113_2026"
    INDEX 01 00:17:12
  TRACK 18 AUDIO
    TITLE "0:"
    INDEX 01 00:20:39
  TRACK 19 AUDIO
    TITLE "8:cjc113_2027"
    INDEX 01 00:21:08
  TRACK 20 AUDIO
    TITLE "0:"
    INDEX 01 00:22:32
  TRACK 21 AUDIO
    TITLE "9:cjc113_2028"
    INDEX 01 00:22:50
  TRACK 22 AUDIO
    TITLE "0:"
    INDEX 01 00:24:06
  TRACK 23 AUDIO
    TITLE "10:cjc113_2029"
    INDEX 01 00:24:24
  TRACK 24 AUDIO
    TITLE "0:"
    INDEX 01 00:27:41
  TRACK 25 AUDIO
    TITLE "8:cjc113_2030"
    INDEX 01 00:28:12
  TRACK 26 AUDIO
    TITLE "0:"
    INDEX 01 00:29:42
  TRACK 27 AUDIO
    TITLE "9:cjc113_2031"
    INDEX 01 00:29:66
  TRACK 28 AUDIO
    TITLE "0:"
    INDEX 01 00:31:29
  TRACK 29 AUDIO
    TITLE "10:cjc113_2032"
    INDEX 01 00:31:53
  TRACK 30 AUDIO
    TITLE "0:"
    INDEX 01 00:34:73
  TRACK 31 AUDIO
    TITLE "8:cjc113_2033"
    INDEX 01 00:35:45
  TRACK 32 AUDIO
    TITLE "0:"
    INDEX 01 00:36:60
  TRACK 33 AUDIO
    TITLE "9:cjc113_2034"
    INDEX 01 00:37:08
  TRACK 34 AUDIO
    TITLE "0:"
    INDEX 01 00:38:45
  TRACK 35 AUDIO
    TITLE "10:cjc113_2035"
    INDEX 01 00:38:71
  TRACK 36 AUDIO
    TITLE "0:"
    INDEX 01 00:42:12
  TRACK 37 AUDIO
    TITLE "8:cjc113_2036"
    INDEX 01 00:42:61
  TRACK 38 AUDIO
    TITLE "0:"
    INDEX 01 00:43:66
  TRACK 39 AUDIO
    TITLE "9:cjc113_2037"
    INDEX 01 00:44:12
  TRACK 40 AUDIO
    TITLE "0:"
    INDEX 01 00:45:55
  TRACK 41 AUDIO
    TITLE "10:cjc113_2038"
    INDEX 01 00:46:02
  TRACK 42 AUDIO
    TITLE "0:"
    INDEX 01 00:48:63
  TRACK 43 AUDIO
    TITLE "8:cjc113_2039"
    INDEX 01 00:49:37
  TRACK 44 AUDIO
    TITLE "0:"
    INDEX 01 00:50:39
  TRACK 45 AUDIO
    TITLE "9:cjc113_2040"
    INDEX 01 00:50:62
  TRACK 46 AUDIO
    TITLE "0:"
    INDEX 01 00:52:22
  TRACK 47 AUDIO
    TITLE "10:cjc113_2041"
    INDEX 01 00:52:43
  TRACK 48 AUDIO
    TITLE "0:"
    INDEX 01 00:56:57
  TRACK 49 AUDIO
    TITLE "8:cjc113_2042"
    INDEX 01 00:57:27
  TRACK 50 AUDIO
    TITLE "0:"
    INDEX 01 00:58:30
  TRACK 51 AUDIO
    TITLE "9:cjc113_2043"
    INDEX 01 00:58:56
  TRACK 52 AUDIO
    TITLE "0:"
    INDEX 01 01:00:27
  TRACK 53 AUDIO
    TITLE "10:cjc113_2044"
    INDEX 01 01:00:53
  TRACK 54 AUDIO
    TITLE "0:"
    INDEX 01 01:02:63
  TRACK 55 AUDIO
    TITLE "8:cjc113_2045"
    INDEX 01 01:03:37
  TRACK 56 AUDIO
    TITLE "0:"
    INDEX 01 01:04:45
  TRACK 57 AUDIO
    TITLE "9:cjc113_2046"
    INDEX 01 01:04:68
  TRACK 58 AUDIO
    TITLE "0:"
    INDEX 01 01:06:12
  TRACK 59 AUDIO
    TITLE "10:cjc113_2047"
    INDEX 01 01:06:36
  TRACK 60 AUDIO
    TITLE "0:"
    INDEX 01 01:09:28
  TRACK 61 AUDIO
    TITLE "8:cjc113_2048"
    INDEX 01 01:09:73
  TRACK 62 AUDIO
    TITLE "0:"
    INDEX 01 01:11:07
  TRACK 63 AUDIO
    TITLE "9:cjc113_2049"
    INDEX 01 01:11:29
  TRACK 64 AUDIO
    TITLE "0:"
    INDEX 01 01:12:42
  TRACK 65 AUDIO
    TITLE "10:cjc113_2050"
    INDEX 01 01:12:66
  TRACK 66 AUDIO
    TITLE "0:"
    INDEX 01 01:16:60
  TRACK 67 AUDIO
    TITLE "8:cjc113_2051"
    INDEX 01 01:17:32
  TRACK 68 AUDIO
    TITLE "0:"
    INDEX 01 01:18:56
  TRACK 69 AUDIO
    TITLE "9:cjc113_2052"
    INDEX 01 01:19:03
  TRACK 70 AUDIO
    TITLE "0:"
    INDEX 01 01:20:48
  TRACK 71 AUDIO
    TITLE "10:cjc113_2053"
    INDEX 01 01:20:67
  TRACK 72 AUDIO
    TITLE "0:"
    INDEX 01 01:24:63
